<!DOCTYPE svg PUBLIC "-//W3C//DTD SVG 1.1//EN" "http://www.w3.org/Graphics/SVG/1.1/DTD/svg11.dtd">
<!-- Uploaded to: SVG Repo, www.svgrepo.com, Transformed by: SVG Repo Mixer Tools -->
<svg width="800px" height="800px" viewBox="-2.4 -2.4 52.80 52.80" xmlns="http://www.w3.org/2000/svg" fill="#3bce82" stroke="#3bce82" stroke-width="1.104">
<g id="SVGRepo_bgCarrier" stroke-width="0">
<rect x="-2.4" y="-2.4" width="52.80" height="52.80" rx="26.4" fill="#ffffff" strokewidth="0"/>
</g>
<g id="SVGRepo_tracerCarrier" stroke-linecap="round" stroke-linejoin="round"/>
<g id="SVGRepo_iconCarrier">
<defs>
<style>.a{fill:none;stroke:#259346;stroke-linecap:round;stroke-linejoin:round;}</style>
</defs>
<path class="a" d="M30.9,4.5l8.3,6.6-8.3,6.6V14.4H23.7c-6.7-.1-9.1,7.5-2.1,10.6l3.6,1.7c.6.2.9.9-.2.8H13.8C5.3,22.6,7.5,7.9,22.3,7.8h8.6Z"/>
<path class="a" d="M17.1,43.5,8.8,36.9l8.3-6.6v3.3h7.2c6.7.1,9.1-7.5,2.1-10.6l-3.6-1.7c-.6-.2-.9-.9.2-.8H34.1c8.5,4.8,6.3,19.4-8.5,19.6H17Z"/>
</g>
</svg>